<mxfile host="app.diagrams.net" modified="2024-07-13T06:55:22.539Z" agent="Mozilla/5.0 (Macintosh; Intel Mac OS X 10_15_7) AppleWebKit/537.36 (KHTML, like Gecko) Chrome/125.0.0.0 Safari/537.36" etag="Dz-x4Tp12RhcP2DkGyMR" version="24.6.5" type="device">
  <diagram name="Page-1" id="8icU8nxh7_proDf1AJ6r">
    <mxGraphModel dx="883" dy="650" grid="1" gridSize="10" guides="1" tooltips="1" connect="1" arrows="1" fold="1" page="1" pageScale="1" pageWidth="827" pageHeight="1169" math="0" shadow="0">
      <root>
        <mxCell id="0" />
        <mxCell id="1" parent="0" />
        <mxCell id="8QCV1wRKg5f8jOjz4p5Q-3" value="" style="edgeStyle=orthogonalEdgeStyle;rounded=0;orthogonalLoop=1;jettySize=auto;html=1;" edge="1" parent="1" source="8QCV1wRKg5f8jOjz4p5Q-1" target="8QCV1wRKg5f8jOjz4p5Q-2">
          <mxGeometry relative="1" as="geometry" />
        </mxCell>
        <mxCell id="8QCV1wRKg5f8jOjz4p5Q-4" value="1:n" style="edgeLabel;html=1;align=center;verticalAlign=middle;resizable=0;points=[];" vertex="1" connectable="0" parent="8QCV1wRKg5f8jOjz4p5Q-3">
          <mxGeometry x="-0.0667" relative="1" as="geometry">
            <mxPoint as="offset" />
          </mxGeometry>
        </mxCell>
        <mxCell id="8QCV1wRKg5f8jOjz4p5Q-1" value="User" style="rounded=0;whiteSpace=wrap;html=1;" vertex="1" parent="1">
          <mxGeometry x="120" y="70" width="120" height="60" as="geometry" />
        </mxCell>
        <mxCell id="8QCV1wRKg5f8jOjz4p5Q-6" value="" style="edgeStyle=orthogonalEdgeStyle;rounded=0;orthogonalLoop=1;jettySize=auto;html=1;" edge="1" parent="1" source="8QCV1wRKg5f8jOjz4p5Q-2" target="8QCV1wRKg5f8jOjz4p5Q-5">
          <mxGeometry relative="1" as="geometry" />
        </mxCell>
        <mxCell id="8QCV1wRKg5f8jOjz4p5Q-7" value="1:1" style="edgeLabel;html=1;align=center;verticalAlign=middle;resizable=0;points=[];" vertex="1" connectable="0" parent="8QCV1wRKg5f8jOjz4p5Q-6">
          <mxGeometry x="0.0444" y="-3" relative="1" as="geometry">
            <mxPoint as="offset" />
          </mxGeometry>
        </mxCell>
        <mxCell id="8QCV1wRKg5f8jOjz4p5Q-9" value="" style="edgeStyle=orthogonalEdgeStyle;rounded=0;orthogonalLoop=1;jettySize=auto;html=1;" edge="1" parent="1" source="8QCV1wRKg5f8jOjz4p5Q-2" target="8QCV1wRKg5f8jOjz4p5Q-8">
          <mxGeometry relative="1" as="geometry" />
        </mxCell>
        <mxCell id="8QCV1wRKg5f8jOjz4p5Q-10" value="n;;m" style="edgeLabel;html=1;align=center;verticalAlign=middle;resizable=0;points=[];" vertex="1" connectable="0" parent="8QCV1wRKg5f8jOjz4p5Q-9">
          <mxGeometry x="0.06" relative="1" as="geometry">
            <mxPoint as="offset" />
          </mxGeometry>
        </mxCell>
        <mxCell id="8QCV1wRKg5f8jOjz4p5Q-2" value="Hardware" style="rounded=0;whiteSpace=wrap;html=1;" vertex="1" parent="1">
          <mxGeometry x="330" y="70" width="120" height="60" as="geometry" />
        </mxCell>
        <mxCell id="8QCV1wRKg5f8jOjz4p5Q-5" value="CategoryEnum" style="rounded=0;whiteSpace=wrap;html=1;" vertex="1" parent="1">
          <mxGeometry x="540" y="70" width="120" height="60" as="geometry" />
        </mxCell>
        <mxCell id="8QCV1wRKg5f8jOjz4p5Q-8" value="Rental" style="rounded=0;whiteSpace=wrap;html=1;" vertex="1" parent="1">
          <mxGeometry x="330" y="230" width="120" height="60" as="geometry" />
        </mxCell>
      </root>
    </mxGraphModel>
  </diagram>
</mxfile>
